<svg version="1.2" xmlns="http://www.w3.org/2000/svg" viewBox="0 0 1080 1080" width="512" height="512">
	<style>
		.s0 { fill: #00953e } 
		.s1 { fill: #ffffff } 
		.s2 { fill: #f29111 } 
		.s3 { fill: #ff4438 } 
		.s4 { fill: #4f5b93 } 
	</style>
	<g id="Top Left">
		<path id="Top Left" fill-rule="evenodd" class="s0" d="m24 0h472c13.25 0 24 10.75 24 24v472c0 13.25-10.75 24-24 24h-472c-13.25 0-24-10.75-24-24v-472c0-13.25 10.75-24 24-24z"/>
		<path id="D" class="s1" aria-label="D"  d="m256.9 392h-68v-262.8h68q25.6 0 43.9 9.7 18.7 9.7 28.8 27.4 10.5 17.6 10.5 41.7v104.8q0 24.1-10.5 42.1-10.1 17.7-28.8 27.4-18.3 9.7-43.9 9.7zm-35.6-234v205.2h35.6q23.8 0 37.1-13.3 13.7-13.3 13.7-37.1v-104.8q0-23.4-13.7-36.7-13.3-13.3-37.1-13.3zm26.2 234h-68.1v-262.8h68.1q25.5 0 43.9 9.7 18.7 9.7 28.8 27.4 10.4 17.6 10.4 41.7v104.8q0 24.1-10.4 42.1-10.1 17.7-28.8 27.4-18.4 9.7-43.9 9.7zm-35.7-234v205.2h35.7q23.7 0 37-13.3 13.7-13.3 13.7-37.1v-104.8q0-23.4-13.7-36.7-13.3-13.3-37-13.3z"/>
	</g>
	<g id="Top Right">
		<path id="Top Right" fill-rule="evenodd" class="s2" d="m584 0h472c13.25 0 24 10.75 24 24v472c0 13.25-10.75 24-24 24h-472c-13.25 0-24-10.75-24-24v-472c0-13.25 10.75-24 24-24z"/>
		<path id="E" class="s1" aria-label="E"  d="m900.9 392h-151.2v-262.8h151.2v29.5h-119.1v81.4h106.5v29.1h-106.5v93.3h119.1zm-9.4 0h-151.2v-262.8h151.2v29.5h-119.2v81.4h106.6v29.1h-106.6v93.3h119.2z"/>
	</g>
	<g id="Bottom Left">
		<path id="Bottom Left" fill-rule="evenodd" class="s3" d="m24 560h472c13.25 0 24 10.75 24 24v472c0 13.25-10.75 24-24 24h-472c-13.25 0-24-10.75-24-24v-472c0-13.25 10.75-24 24-24z"/>
		<path id="B" class="s1" aria-label="B"  d="m266.1 952h-79.9v-262.8h74.5q36 0 56.2 18 20.5 18 20.5 50 0 18-7.5 31.4-7.6 13.3-21.6 20.5-13.7 7.2-33.2 6.8v-5.4q20.9-0.3 36 7.9 15.5 8.3 23.8 23.8 8.6 15.5 8.6 36.7 0 22.3-9.3 38.9-9.4 16.6-26.7 25.6-17.2 8.6-41.4 8.6zm-48.2-122.8v93.6h44.6q22.7 0 35.7-11.8 13.3-12.3 13.3-33.2 0-21.6-13.3-34.9-13-13.7-35.7-13.7zm0-110.8v82.8h42.5q20.9 0 32.8-11.2 12.2-11.2 12.2-30.2 0-19.1-11.9-30.3-11.8-11.1-32.7-11.1zm38.7 233.6h-79.9v-262.8h74.5q36 0 56.2 18 20.5 18 20.5 50 0 18-7.5 31.4-7.6 13.3-21.6 20.5-13.7 7.2-33.2 6.8v-5.4q20.9-0.3 36 7.9 15.5 8.3 23.8 23.8 8.6 15.5 8.6 36.7 0 22.3-9.3 38.9-9.4 16.6-26.7 25.6-17.2 8.6-41.4 8.6zm-48.2-122.8v93.6h44.6q22.7 0 35.7-11.8 13.3-12.3 13.3-33.2 0-21.6-13.3-34.9-13-13.7-35.7-13.7zm0-110.8v82.8h42.5q20.9 0 32.8-11.2 12.2-11.2 12.2-30.2 0-19.1-11.9-30.3-11.8-11.1-32.7-11.1z"/>
	</g>
	<g id="Bottom Right">
		<path id="Bottom Right" fill-rule="evenodd" class="s4" d="m584 560h472c13.25 0 24 10.75 24 24v472c0 13.25-10.75 24-24 24h-472c-13.25 0-24-10.75-24-24v-472c0-13.25 10.75-24 24-24z"/>
		<path id="O" class="s1" aria-label="O"  d="m824.7 955.6q-23.7 0-41-9-16.9-9-26.3-25.9-9-17.3-9-40.7v-118.8q0-23.8 9-40.7 9.4-16.9 26.3-25.9 17.3-9 41-9 23.8 0 40.7 9 17.3 9 26.3 25.9 9.4 16.9 9.4 40.3v119.2q0 23.4-9.4 40.7-9 16.9-26.3 25.9-16.9 9-40.7 9zm0-29.2q21.3 0 32.4-11.8 11.6-12.3 11.6-34.6v-118.8q0-22.3-11.6-34.2-11.1-12.2-32.4-12.2-20.8 0-32.4 12.2-11.5 11.9-11.5 34.2v118.8q0 22.3 11.5 34.6 11.6 11.8 32.4 11.8zm-9.4 29.2q-23.8 0-41.1-9-16.9-9-26.3-25.9-9-17.3-9-40.7v-118.8q0-23.8 9-40.7 9.4-16.9 26.3-25.9 17.3-9 41.1-9 23.7 0 40.6 9 17.3 9 26.3 25.9 9.4 16.9 9.4 40.3v119.2q0 23.4-9.4 40.7-9 16.9-26.3 25.9-16.9 9-40.6 9zm0-29.2q21.2 0 32.4-11.8 11.5-12.3 11.5-34.6v-118.8q0-22.3-11.5-34.2-11.2-12.2-32.4-12.2-20.9 0-32.4 12.2-11.6 11.9-11.6 34.2v118.8q0 22.3 11.6 34.6 11.5 11.8 32.4 11.8z"/>
	</g>
</svg>